<mxfile host="app.diagrams.net" modified="2021-06-25T13:20:04.317Z" agent="5.0 (Windows NT 10.0; Win64; x64) AppleWebKit/537.36 (KHTML, like Gecko) Chrome/91.0.4472.106 Safari/537.36" etag="pWS1sTaxDSCeZNihw_Hz" version="14.8.1" type="github">
  <diagram id="P6BvJFfcuxhLJJVQvCdm" name="Page-1">
    <mxGraphModel dx="1422" dy="737" grid="1" gridSize="10" guides="1" tooltips="1" connect="1" arrows="1" fold="1" page="1" pageScale="1" pageWidth="827" pageHeight="1169" math="0" shadow="0">
      <root>
        <mxCell id="0" />
        <mxCell id="1" parent="0" />
        <mxCell id="qQ_T5CTiI8coLUywcJNy-3" value="" style="edgeStyle=orthogonalEdgeStyle;rounded=0;orthogonalLoop=1;jettySize=auto;html=1;" edge="1" parent="1" source="qQ_T5CTiI8coLUywcJNy-1" target="qQ_T5CTiI8coLUywcJNy-2">
          <mxGeometry relative="1" as="geometry" />
        </mxCell>
        <mxCell id="qQ_T5CTiI8coLUywcJNy-1" value="Tweets" style="rounded=1;whiteSpace=wrap;html=1;arcSize=50;fillColor=#d5e8d4;strokeColor=#82b366;" vertex="1" parent="1">
          <mxGeometry x="130" y="280" width="120" height="60" as="geometry" />
        </mxCell>
        <mxCell id="qQ_T5CTiI8coLUywcJNy-10" value="" style="edgeStyle=orthogonalEdgeStyle;rounded=0;orthogonalLoop=1;jettySize=auto;html=1;" edge="1" parent="1" source="qQ_T5CTiI8coLUywcJNy-2" target="qQ_T5CTiI8coLUywcJNy-9">
          <mxGeometry relative="1" as="geometry" />
        </mxCell>
        <mxCell id="qQ_T5CTiI8coLUywcJNy-2" value="mordecai" style="whiteSpace=wrap;html=1;rounded=1;fillColor=#dae8fc;strokeColor=#6c8ebf;" vertex="1" parent="1">
          <mxGeometry x="294" y="280" width="120" height="60" as="geometry" />
        </mxCell>
        <mxCell id="qQ_T5CTiI8coLUywcJNy-6" style="edgeStyle=orthogonalEdgeStyle;rounded=0;orthogonalLoop=1;jettySize=auto;html=1;entryX=0;entryY=0.5;entryDx=0;entryDy=0;exitX=0.5;exitY=1;exitDx=0;exitDy=0;" edge="1" parent="1" source="qQ_T5CTiI8coLUywcJNy-4" target="qQ_T5CTiI8coLUywcJNy-1">
          <mxGeometry relative="1" as="geometry" />
        </mxCell>
        <mxCell id="qQ_T5CTiI8coLUywcJNy-8" style="edgeStyle=orthogonalEdgeStyle;rounded=0;orthogonalLoop=1;jettySize=auto;html=1;entryX=0;entryY=0.5;entryDx=0;entryDy=0;" edge="1" parent="1" source="qQ_T5CTiI8coLUywcJNy-4" target="qQ_T5CTiI8coLUywcJNy-7">
          <mxGeometry relative="1" as="geometry" />
        </mxCell>
        <mxCell id="qQ_T5CTiI8coLUywcJNy-13" style="edgeStyle=orthogonalEdgeStyle;rounded=0;orthogonalLoop=1;jettySize=auto;html=1;startArrow=none;entryX=0.5;entryY=1;entryDx=0;entryDy=0;" edge="1" parent="1" source="qQ_T5CTiI8coLUywcJNy-14" target="qQ_T5CTiI8coLUywcJNy-11">
          <mxGeometry relative="1" as="geometry">
            <Array as="points" />
          </mxGeometry>
        </mxCell>
        <mxCell id="qQ_T5CTiI8coLUywcJNy-4" value="User" style="rounded=0;whiteSpace=wrap;html=1;" vertex="1" parent="1">
          <mxGeometry x="20" y="150" width="120" height="60" as="geometry" />
        </mxCell>
        <mxCell id="qQ_T5CTiI8coLUywcJNy-20" style="edgeStyle=orthogonalEdgeStyle;rounded=0;orthogonalLoop=1;jettySize=auto;html=1;entryX=0.5;entryY=0;entryDx=0;entryDy=0;" edge="1" parent="1" source="qQ_T5CTiI8coLUywcJNy-7" target="qQ_T5CTiI8coLUywcJNy-18">
          <mxGeometry relative="1" as="geometry" />
        </mxCell>
        <mxCell id="qQ_T5CTiI8coLUywcJNy-7" value="Information about the user" style="rounded=1;whiteSpace=wrap;html=1;arcSize=50;fillColor=#d5e8d4;strokeColor=#82b366;" vertex="1" parent="1">
          <mxGeometry x="500" y="150" width="120" height="60" as="geometry" />
        </mxCell>
        <mxCell id="qQ_T5CTiI8coLUywcJNy-12" value="" style="edgeStyle=orthogonalEdgeStyle;rounded=0;orthogonalLoop=1;jettySize=auto;html=1;" edge="1" parent="1" source="qQ_T5CTiI8coLUywcJNy-9" target="qQ_T5CTiI8coLUywcJNy-11">
          <mxGeometry relative="1" as="geometry" />
        </mxCell>
        <mxCell id="qQ_T5CTiI8coLUywcJNy-9" value="tweets with NEs" style="whiteSpace=wrap;html=1;rounded=1;arcSize=50;fillColor=#d5e8d4;strokeColor=#82b366;" vertex="1" parent="1">
          <mxGeometry x="450" y="280" width="120" height="60" as="geometry" />
        </mxCell>
        <mxCell id="qQ_T5CTiI8coLUywcJNy-17" value="" style="edgeStyle=orthogonalEdgeStyle;rounded=0;orthogonalLoop=1;jettySize=auto;html=1;" edge="1" parent="1" source="qQ_T5CTiI8coLUywcJNy-11" target="qQ_T5CTiI8coLUywcJNy-16">
          <mxGeometry relative="1" as="geometry" />
        </mxCell>
        <mxCell id="qQ_T5CTiI8coLUywcJNy-11" value="Filtering tweets" style="whiteSpace=wrap;html=1;rounded=1;fillColor=#dae8fc;strokeColor=#6c8ebf;" vertex="1" parent="1">
          <mxGeometry x="610" y="280" width="120" height="60" as="geometry" />
        </mxCell>
        <mxCell id="qQ_T5CTiI8coLUywcJNy-14" value="(lat, lon) for training" style="rounded=1;whiteSpace=wrap;html=1;arcSize=50;fillColor=#d5e8d4;strokeColor=#82b366;" vertex="1" parent="1">
          <mxGeometry x="294" y="390" width="120" height="60" as="geometry" />
        </mxCell>
        <mxCell id="qQ_T5CTiI8coLUywcJNy-15" value="" style="edgeStyle=orthogonalEdgeStyle;rounded=0;orthogonalLoop=1;jettySize=auto;html=1;endArrow=none;exitX=0.5;exitY=1;exitDx=0;exitDy=0;" edge="1" parent="1" source="qQ_T5CTiI8coLUywcJNy-4" target="qQ_T5CTiI8coLUywcJNy-14">
          <mxGeometry relative="1" as="geometry">
            <mxPoint x="80" y="210" as="sourcePoint" />
            <mxPoint x="890" y="340" as="targetPoint" />
            <Array as="points">
              <mxPoint x="80" y="420" />
            </Array>
          </mxGeometry>
        </mxCell>
        <mxCell id="qQ_T5CTiI8coLUywcJNy-19" value="" style="edgeStyle=orthogonalEdgeStyle;rounded=0;orthogonalLoop=1;jettySize=auto;html=1;" edge="1" parent="1" source="qQ_T5CTiI8coLUywcJNy-16" target="qQ_T5CTiI8coLUywcJNy-18">
          <mxGeometry relative="1" as="geometry" />
        </mxCell>
        <mxCell id="qQ_T5CTiI8coLUywcJNy-16" value="Tweets with NEs with mentions about the home place" style="whiteSpace=wrap;html=1;rounded=1;arcSize=50;fillColor=#d5e8d4;strokeColor=#82b366;" vertex="1" parent="1">
          <mxGeometry x="780" y="280" width="140" height="60" as="geometry" />
        </mxCell>
        <mxCell id="qQ_T5CTiI8coLUywcJNy-22" style="edgeStyle=orthogonalEdgeStyle;rounded=0;orthogonalLoop=1;jettySize=auto;html=1;" edge="1" parent="1" source="qQ_T5CTiI8coLUywcJNy-18" target="qQ_T5CTiI8coLUywcJNy-21">
          <mxGeometry relative="1" as="geometry" />
        </mxCell>
        <mxCell id="qQ_T5CTiI8coLUywcJNy-18" value="Home place localization" style="whiteSpace=wrap;html=1;rounded=1;fillColor=#dae8fc;strokeColor=#6c8ebf;" vertex="1" parent="1">
          <mxGeometry x="970" y="280" width="120" height="60" as="geometry" />
        </mxCell>
        <mxCell id="qQ_T5CTiI8coLUywcJNy-21" value="Home location" style="rounded=0;whiteSpace=wrap;html=1;" vertex="1" parent="1">
          <mxGeometry x="1130" y="280" width="120" height="60" as="geometry" />
        </mxCell>
      </root>
    </mxGraphModel>
  </diagram>
</mxfile>
